<mxfile host="app.diagrams.net" agent="Mozilla/5.0 (Windows NT 10.0; Win64; x64) AppleWebKit/537.36 (KHTML, like Gecko) Chrome/134.0.0.0 Safari/537.36" version="26.1.1">
  <diagram name="PÃ¡gina-1" id="FvIDUbgL_lrbDH0Tg_sd">
    <mxGraphModel dx="880" dy="460" grid="1" gridSize="10" guides="1" tooltips="1" connect="1" arrows="1" fold="1" page="1" pageScale="1" pageWidth="827" pageHeight="1169" math="0" shadow="0">
      <root>
        <mxCell id="0" />
        <mxCell id="1" parent="0" />
        <mxCell id="rLAi7SNAMB2uR87iuYdk-3" value="" style="edgeStyle=orthogonalEdgeStyle;rounded=0;orthogonalLoop=1;jettySize=auto;html=1;" edge="1" parent="1" source="rLAi7SNAMB2uR87iuYdk-1" target="rLAi7SNAMB2uR87iuYdk-2">
          <mxGeometry relative="1" as="geometry" />
        </mxCell>
        <mxCell id="rLAi7SNAMB2uR87iuYdk-1" value="inicio" style="ellipse;whiteSpace=wrap;html=1;fillColor=#f5f5f5;fontColor=#333333;strokeColor=#666666;" vertex="1" parent="1">
          <mxGeometry x="354" y="20" width="120" height="80" as="geometry" />
        </mxCell>
        <mxCell id="rLAi7SNAMB2uR87iuYdk-7" value="" style="edgeStyle=orthogonalEdgeStyle;rounded=0;orthogonalLoop=1;jettySize=auto;html=1;" edge="1" parent="1" source="rLAi7SNAMB2uR87iuYdk-2" target="rLAi7SNAMB2uR87iuYdk-6">
          <mxGeometry relative="1" as="geometry" />
        </mxCell>
        <mxCell id="rLAi7SNAMB2uR87iuYdk-2" value="custo_de_fabrica, taxa_de_impostos, taxa_de_destribuicao" style="shape=parallelogram;perimeter=parallelogramPerimeter;whiteSpace=wrap;html=1;fixedSize=1;fillColor=#f5f5f5;strokeColor=#666666;fontColor=#333333;" vertex="1" parent="1">
          <mxGeometry x="281" y="200" width="266" height="60" as="geometry" />
        </mxCell>
        <mxCell id="rLAi7SNAMB2uR87iuYdk-10" value="" style="edgeStyle=orthogonalEdgeStyle;rounded=0;orthogonalLoop=1;jettySize=auto;html=1;" edge="1" parent="1" source="rLAi7SNAMB2uR87iuYdk-6" target="rLAi7SNAMB2uR87iuYdk-9">
          <mxGeometry relative="1" as="geometry" />
        </mxCell>
        <mxCell id="rLAi7SNAMB2uR87iuYdk-6" value="resultado = (custo_de_fabrica+(custo_de_fabrica*taxa_de_impostos))+(taxa_de_destribuicao*(custo_de_fabrica+(custo_de_fabrica*taxa_de_impostos))" style="whiteSpace=wrap;html=1;fillColor=#f5f5f5;strokeColor=#666666;fontColor=#333333;" vertex="1" parent="1">
          <mxGeometry x="246" y="340" width="336" height="60" as="geometry" />
        </mxCell>
        <mxCell id="rLAi7SNAMB2uR87iuYdk-12" value="" style="edgeStyle=orthogonalEdgeStyle;rounded=0;orthogonalLoop=1;jettySize=auto;html=1;" edge="1" parent="1" source="rLAi7SNAMB2uR87iuYdk-9" target="rLAi7SNAMB2uR87iuYdk-11">
          <mxGeometry relative="1" as="geometry" />
        </mxCell>
        <mxCell id="rLAi7SNAMB2uR87iuYdk-9" value="valor para o consumidor" style="shape=document;whiteSpace=wrap;html=1;boundedLbl=1;fillColor=#f5f5f5;strokeColor=#666666;fontColor=#333333;" vertex="1" parent="1">
          <mxGeometry x="354" y="470" width="120" height="80" as="geometry" />
        </mxCell>
        <mxCell id="rLAi7SNAMB2uR87iuYdk-11" value="fim" style="ellipse;whiteSpace=wrap;html=1;fillColor=#f5f5f5;strokeColor=#666666;fontColor=#333333;" vertex="1" parent="1">
          <mxGeometry x="374" y="630" width="80" height="80" as="geometry" />
        </mxCell>
      </root>
    </mxGraphModel>
  </diagram>
</mxfile>
